<?xml version="1.0" encoding="utf-8"?>
<!-- Generator: Adobe Illustrator 23.0.6, SVG Export Plug-In . SVG Version: 6.00 Build 0)  -->
<svg version="1.1" id="Layer_1" xmlns="http://www.w3.org/2000/svg" xmlns:xlink="http://www.w3.org/1999/xlink" x="0px" y="0px"
	 viewBox="0 0 1000 1000" style="enable-background:new 0 0 1000 1000;" xml:space="preserve">
<style type="text/css">
	.st0{fill:#FFDE17;}
</style>
<g>
	<path class="st0" d="M498.53,111.34c21.64,0.22,41,0.95,59.66,6.17c18.82,5.26,37.4,11.48,55.86,17.91
		c11.26,3.93,22.12,9.02,33.14,13.64c15.98,6.7,29.38,17.22,42.4,28.39c21.86,18.76,38.82,41.59,54.61,65.37
		c11.2,16.87,18.13,35.72,23.22,55.14c6.31,24.04,12.07,48.23,17.45,72.49c2.91,13.1,4.84,26.45,6.65,39.76
		c1.85,13.6,3.2,27.27,4.39,40.95c0.84,9.64,1.11,19.34,1.48,29.01c0.37,9.58,0.86,19.18,0.73,28.76
		c-0.25,17.97-0.32,35.97-1.57,53.87c-1.02,14.6-3.3,29.15-5.64,43.62c-3.11,19.3-6.58,38.55-10.33,57.74
		c-4.76,24.36-9.48,48.76-17.47,72.33c-6.13,18.07-14.87,34.79-26.91,49.74c-16.28,20.2-35.28,37.31-57.5,50.69
		c-14.66,8.82-30.21,15.57-47.45,17.4c-8.99,0.95-18.01,1.91-27.03,2.14c-19.79,0.5-39.59,0.84-59.38,0.66
		c-12.32-0.11-24.66-0.89-36.92-2.12c-15.16-1.51-30.34-3.24-45.33-5.89c-22.48-3.97-44.48-9.99-65.98-17.74
		c-20.06-7.23-40.09-14.51-58.75-25.05c-15-8.48-28.8-18.52-41.64-30.04c-28.27-25.37-51.27-55.02-70.51-87.53
		c-16.16-27.3-29.43-56.05-37.96-86.75c-3.21-11.56-5.99-23.28-6.22-35.34c-0.42-21.97-0.99-43.95-0.56-65.91
		c0.28-14.19,1.33-28.49,3.66-42.47c3.02-18.15,7.02-36.2,11.7-54c10.14-38.58,26.17-74.87,45.06-109.89
		c13.97-25.9,30.2-50.41,47.15-74.47c17.52-24.86,37.6-47.44,59.6-68.35c20.4-19.39,43.38-35.31,67.53-49.61
		c21.76-12.89,45.02-22.3,69.23-29.38c5.94-1.74,12.17-2.63,18.34-3.37c4.16-0.5,7.79,2.78,8.2,6.45c0.65,5.71-1.63,9.36-6.41,10.56
		c-9.04,2.27-18.21,4.16-27.05,7.03c-29.98,9.74-57.23,24.81-82.9,42.98c-20.66,14.63-39.1,31.63-56.4,50.08
		c-25.41,27.09-46.02,57.66-65.62,88.97c-19.62,31.34-35.85,64.39-48.68,99.07c-7.87,21.27-14.18,43.04-18.39,65.32
		c-2.62,13.88-4.51,27.95-5.78,42.01c-1.2,13.23-1.14,26.58-1.66,39.88c-0.16,4-0.67,8.01-0.56,12.01c0.32,12.34,0.19,24.75,1.48,37
		c1.68,16.03,6,31.58,11.71,46.67c13.07,34.58,30.26,66.91,52.48,96.54c13.93,18.57,29.09,36.01,46.48,51.41
		c19.8,17.53,42.35,30.53,66.98,40.08c20.39,7.91,40.88,15.55,62.19,20.58c12.7,3,25.52,5.6,38.41,7.63
		c12.57,1.98,25.27,3.19,37.94,4.44c28.7,2.82,57.5,1.55,86.24,1.28c17.52-0.16,35.13-1.63,51.58-9.08
		c14.86-6.73,28.37-15.44,40.74-26.04c12.01-10.3,23-21.52,32.41-34.29c10.95-14.87,18.36-31.46,22.97-49.16
		c4.75-18.2,8.57-36.65,12.49-55.05c3.05-14.3,5.85-28.66,8.38-43.06c2.35-13.36,4.68-26.75,6.12-40.22
		c1.57-14.63,2.51-29.37,3.02-44.08c0.64-18.32,0.78-36.67,0.72-55.01c-0.03-10.18-0.51-20.39-1.48-30.52
		c-1.34-14.13-3.18-28.22-5.06-42.3c-4.7-35.2-13.13-69.61-21.9-103.96c-7.73-30.26-22.09-56.91-41.43-81.31
		c-15.51-19.56-32.82-37.08-53.43-51.1c-13.87-9.44-29.55-15.6-45.3-21.06c-21.2-7.35-42.53-14.55-64.25-20.1
		c-12.53-3.2-25.91-3.04-38.91-4.39c-11.2-1.16-22.29-0.58-33.23,2.13c-3.05,0.76-6.07,1.69-9.1,2.55c-5.65,1.6-9.85-0.53-11.44-5.8
		c-1.33-4.39,1.17-8.54,6.38-10.17C472.73,113.62,483.88,110.79,498.53,111.34z"/>
	<path class="st0" d="M431.63,669.04c-6.25-0.07-9.64-2.84-10.11-7.1c-0.53-4.93,1.84-8.85,6.57-9.85c10-2.12,20.06-3.97,30.11-5.87
		c14.19-2.68,28.36-5.46,42.59-7.9c11.53-1.98,23.14-3.52,34.72-5.27c26.87-4.04,53.79-7.84,79.02-18.88
		c8.75-3.83,17.82-6.91,26.63-10.58c2.85-1.19,5.54-2.95,7.97-4.88c4.51-3.56,8.84-3.74,12.34-0.09c3.51,3.67,3.14,8.49-1.05,12.52
		c-4.43,4.26-9.57,7.14-15.42,9.28c-11.57,4.23-22.82,9.35-34.35,13.72c-17.35,6.58-35.44,10.24-53.73,13.08
		c-16.56,2.56-33.12,5.12-49.63,7.99c-22.89,3.98-45.73,8.25-68.59,12.41C435.87,668.12,433.06,668.75,431.63,669.04z"/>
	<path class="st0" d="M615.91,495.81c0,1.34,0.04,2.67-0.01,4.01c-0.14,4.38-3.24,7.78-7.33,8.07c-4.73,0.34-8.53-2.38-9.06-7
		c-0.66-5.78-0.62-11.64-1.4-17.4c-1.84-13.54-3.51-27.12-6.12-40.52c-4.44-22.85-9.52-45.58-14.37-68.36
		c-3.61-16.97-7.47-33.88-10.87-50.89c-2.29-11.45-4.02-23.01-5.93-34.53c-0.85-5.11,2.09-9.67,6.63-10.6
		c4.94-1.01,9.37,1.8,10.39,7.21c2.33,12.32,4.2,24.72,6.56,37.03c2.66,13.84,5.6,27.64,8.55,41.42
		c3.89,18.17,8.16,36.26,11.79,54.48c3.5,17.52,6.65,35.12,9.43,52.76c1.26,8,1.27,16.19,1.84,24.3
		C615.99,495.81,615.95,495.81,615.91,495.81z"/>
	<path class="st0" d="M390.68,530.58c-7.28-0.28-10.49-3.64-12.12-8.38c-2.71-7.88-5.23-15.84-7.4-23.89
		c-8.27-30.65-16.65-61.27-24.4-92.05c-3.52-13.98-5.68-28.31-8.45-42.49c-0.88-4.49-1.71-8.99-2.62-13.47
		c-1.07-5.28,1.47-9.99,6.12-11.21c4.57-1.2,9.39,1.65,10.58,6.97c1.7,7.63,2.63,15.43,4.27,23.07
		c3.82,17.78,7.42,35.63,11.94,53.24c7.39,28.76,15.45,57.35,23.18,86.02c0.6,2.22,1.49,3.61,3.85,4.61
		c5.4,2.29,6.58,9.31,2.21,13.24C395.45,528.4,392.26,529.66,390.68,530.58z"/>
</g>
</svg>
